<?xml version="1.0" standalone="no"?>
<!DOCTYPE svg PUBLIC "-//W3C//DTD SVG 20010904//EN"
 "http://www.w3.org/TR/2001/REC-SVG-20010904/DTD/svg10.dtd">
<svg version="1.0" xmlns="http://www.w3.org/2000/svg"
 width="816.000000pt" height="816.000000pt" viewBox="0 0 816.000000 816.000000"
 preserveAspectRatio="xMidYMid meet">
<metadata>
Created by potrace 1.14, written by Peter Selinger 2001-2017
</metadata>
<g transform="translate(0.000000,816.000000) scale(0.100000,-0.100000)"
fill="#000000" stroke="none">
<path d="M903 7067 c-112 -167 -245 -425 -307 -598 -40 -111 -73 -259 -85
-379 -9 -93 -7 -343 3 -430 28 -236 134 -533 274 -765 44 -74 170 -235 183
-235 6 0 6 7 0 19 -53 98 -171 595 -196 823 -7 58 1 118 14 118 4 0 22 -39 40
-87 67 -180 212 -433 324 -568 100 -120 305 -324 382 -380 40 -29 132 -104
169 -137 11 -10 21 -16 24 -14 2 3 -30 64 -71 138 -41 73 -83 149 -93 168 -11
19 -22 37 -25 40 -6 5 -253 416 -301 500 -149 262 -244 508 -284 740 -22 128
-31 656 -14 854 17 212 19 245 12 250 -4 2 -26 -24 -49 -57z"/>
<path d="M7045 7050 c3 -47 10 -121 16 -165 21 -159 17 -670 -6 -790 -28 -148
-42 -202 -76 -299 -22 -61 -64 -160 -94 -220 -48 -94 -193 -323 -297 -467
-244 -341 -468 -667 -468 -682 0 -4 134 81 185 118 327 240 466 364 608 539
104 130 134 178 230 366 44 85 82 159 85 164 10 18 21 -29 21 -97 1 -50 -14
-130 -54 -300 -64 -269 -72 -295 -132 -440 -25 -59 -43 -110 -40 -113 5 -6 49
36 126 121 162 178 349 550 391 775 6 30 12 66 15 80 38 192 18 495 -47 715
-57 193 -262 540 -444 750 l-26 30 7 -85z"/>
<path d="M4125 6323 c-76 -239 -183 -371 -510 -636 -99 -79 -215 -182 -257
-228 -142 -154 -153 -164 -231 -202 -43 -21 -82 -35 -88 -32 -15 10 -10 124 7
161 18 37 89 104 110 104 30 0 197 81 259 125 28 20 66 46 85 59 19 13 85 75
146 137 109 112 163 190 197 284 25 69 49 157 44 161 -3 3 -19 -19 -37 -48
-18 -29 -35 -55 -39 -58 -3 -3 -12 -17 -20 -32 -20 -39 -188 -205 -222 -220
-16 -7 -29 -16 -29 -19 0 -3 -36 -23 -79 -43 -72 -34 -125 -54 -305 -118 -116
-41 -185 -91 -230 -167 -39 -68 -54 -123 -63 -237 -6 -84 -8 -90 -50 -145 -98
-129 -149 -235 -170 -354 -14 -76 -9 -153 10 -173 16 -15 17 -15 17 1 0 9 3
17 8 17 4 0 13 12 19 28 7 15 40 55 73 88 66 66 170 124 270 151 209 57 259
73 326 108 38 19 111 68 162 110 155 124 242 154 353 122 99 -29 183 -129 229
-271 21 -65 22 -81 16 -235 -4 -91 -13 -202 -22 -246 -8 -44 -17 -104 -21
-134 l-6 -54 48 36 c26 20 70 58 99 84 29 26 69 63 90 81 l37 33 -2 162 c-3
329 -79 595 -213 744 -25 28 -46 54 -46 58 0 4 23 32 51 63 42 46 102 127 133
180 15 25 -16 11 -57 -26 -123 -112 -249 -166 -299 -128 -30 22 -21 49 50 152
104 150 152 246 183 367 12 47 19 251 8 268 -3 6 -19 -29 -34 -78z"/>
<path d="M1534 6084 c-15 -32 -40 -113 -57 -179 -27 -107 -30 -136 -31 -270 0
-82 5 -175 11 -205 26 -124 145 -359 252 -492 85 -107 299 -326 425 -437 55
-47 123 -106 151 -131 28 -25 84 -74 125 -110 40 -36 90 -80 109 -98 20 -18
89 -72 155 -120 65 -48 145 -108 177 -134 32 -27 62 -48 67 -48 12 0 -12 140
-34 201 -30 82 -93 158 -214 257 -193 157 -358 325 -565 576 -71 86 -226 307
-282 400 -80 135 -167 318 -201 427 -25 76 -33 122 -37 215 -8 150 -12 194
-19 201 -3 4 -18 -20 -32 -53z"/>
<path d="M6316 6132 c-3 -4 -6 -53 -7 -107 -2 -107 -17 -188 -51 -275 -41
-106 -109 -231 -171 -316 -34 -48 -69 -96 -77 -108 -72 -105 -348 -395 -520
-548 -167 -148 -398 -325 -526 -402 -27 -17 -96 -57 -154 -91 -135 -78 -147
-86 -178 -110 -123 -99 -251 -249 -322 -377 -28 -51 -55 -100 -59 -108 -17
-29 -70 -206 -80 -265 -6 -33 -13 -76 -17 -95 -8 -47 -8 -288 1 -342 4 -24 9
-56 11 -73 20 -138 42 -201 100 -286 47 -71 93 -119 81 -87 -3 9 -9 43 -12 75
-4 32 -13 99 -21 148 -14 89 -13 371 1 440 34 166 104 335 161 392 8 8 14 18
14 23 0 5 36 44 79 88 100 102 186 165 402 297 9 6 39 23 65 40 60 36 302 212
439 319 55 43 118 90 140 104 147 98 547 460 620 563 17 22 38 50 48 60 9 10
17 21 17 24 0 2 15 28 34 57 150 236 176 490 81 776 -31 93 -78 192 -90 192
-2 0 -6 -4 -9 -8z"/>
<path d="M7941 5733 c-50 -204 -99 -374 -112 -387 -5 -6 -9 -18 -9 -28 0 -36
-115 -287 -182 -396 -60 -98 -140 -196 -250 -304 -161 -158 -303 -242 -572
-334 -115 -40 -382 -108 -531 -136 -630 -116 -866 -192 -1124 -363 -112 -74
-302 -262 -373 -370 -63 -96 -162 -290 -173 -340 -7 -29 -5 -28 42 20 26 28
75 82 108 120 104 122 220 230 301 280 43 26 86 53 94 60 8 6 42 21 75 34 33
13 74 30 90 37 34 15 184 63 291 94 101 28 241 48 396 55 293 12 365 17 441
30 132 24 265 64 381 116 60 27 116 49 124 49 32 0 -13 -85 -90 -172 -49 -54
-190 -170 -239 -197 -169 -90 -184 -95 -424 -141 -104 -20 -281 -73 -297 -88
-4 -4 0 -8 10 -9 762 -39 944 -14 1192 163 134 96 184 139 295 253 161 167
228 257 321 436 158 303 230 566 279 1025 9 75 8 440 0 532 -14 156 -16 155
-64 -39z"/>
<path d="M137 5833 c-6 -68 0 -648 6 -678 3 -11 8 -56 12 -100 20 -240 96
-553 190 -781 122 -296 358 -605 594 -777 197 -144 305 -164 781 -142 96 4
181 8 188 8 60 2 -133 72 -292 106 -129 28 -188 52 -277 114 -148 101 -273
233 -314 330 -30 73 -25 73 119 2 204 -100 286 -118 591 -130 200 -8 231 -12
390 -52 160 -40 432 -162 504 -227 9 -8 46 -42 82 -75 68 -63 79 -70 79 -48 0
6 6 23 13 37 32 60 4 110 -146 258 -114 114 -202 177 -347 251 -95 49 -295
124 -375 140 -39 9 -229 53 -390 92 -201 48 -330 90 -455 146 -30 14 -74 34
-98 44 -154 67 -348 251 -476 452 -48 74 -126 232 -165 330 -34 84 -96 287
-110 358 -16 79 -91 392 -95 396 -2 3 -6 -22 -9 -54z"/>
<path d="M3673 4803 c2 -56 -3 -92 -16 -123 -24 -59 -112 -237 -161 -325 -21
-38 -45 -82 -53 -97 -8 -16 -19 -28 -24 -28 -5 0 -9 -6 -9 -13 0 -12 -98 -173
-122 -201 -17 -20 -148 -236 -148 -244 0 -5 -8 -17 -18 -28 -18 -19 -111 -203
-151 -296 -26 -63 -70 -236 -79 -312 -4 -33 -7 -131 -7 -216 0 -145 2 -160 29
-235 25 -70 91 -220 117 -265 5 -8 22 -40 37 -70 49 -94 188 -321 283 -462 33
-49 59 -90 59 -92 0 -2 9 -15 20 -28 10 -12 71 -92 134 -177 113 -151 204
-258 232 -274 8 -5 -8 34 -36 85 -181 334 -328 669 -403 919 -32 106 -44 154
-83 329 -22 100 -32 238 -30 430 2 207 28 347 100 551 76 215 135 335 289 594
185 311 227 396 234 481 5 57 4 62 -27 97 -23 27 -48 42 -89 53 -31 9 -61 19
-68 21 -8 3 -11 -18 -10 -74z"/>
<path d="M7513 3322 c-69 -59 -242 -154 -352 -193 -105 -37 -119 -39 -227 -39
-62 0 -153 6 -201 14 -118 20 -151 24 -268 31 -55 4 -107 9 -115 12 -30 10
-627 12 -710 2 -258 -29 -438 -94 -599 -215 -72 -54 -83 -82 -23 -60 20 7 62
21 92 30 30 8 84 24 120 35 216 64 389 93 565 94 242 2 312 -8 620 -85 266
-66 284 -82 110 -92 -55 -4 -161 -8 -235 -11 -355 -13 -415 -22 -645 -97 -89
-30 -316 -144 -414 -208 -105 -70 -235 -183 -317 -276 -86 -98 -218 -273 -212
-280 4 -3 20 2 37 10 16 9 36 16 44 16 8 0 27 7 44 15 16 8 63 19 104 25 204
26 236 29 256 24 38 -10 13 -35 -109 -108 -207 -125 -339 -234 -569 -471 -107
-110 -218 -238 -247 -285 -9 -14 -28 -39 -42 -56 -35 -43 -53 -67 -67 -90 -91
-146 -117 -191 -152 -257 -71 -133 -74 -161 -8 -73 264 352 584 664 872 852
33 21 62 41 65 44 12 13 108 70 118 70 5 0 12 4 14 9 3 9 264 143 343 176 169
72 488 175 540 175 28 0 40 14 22 28 -54 44 -261 127 -389 156 -47 11 -325 8
-369 -4 -89 -24 -86 6 6 74 110 81 276 148 457 185 122 25 177 29 518 36 151
3 293 8 315 10 22 2 74 6 115 10 218 17 374 75 513 190 64 53 163 163 210 234
63 94 217 354 217 366 0 11 -17 3 -47 -23z"/>
<path d="M586 3198 c160 -315 242 -428 375 -519 153 -104 235 -122 589 -134
258 -8 411 -15 460 -22 127 -16 360 -90 360 -114 0 -5 5 -9 12 -9 17 0 193
-121 280 -192 114 -94 248 -192 254 -186 3 3 -36 67 -86 141 -154 230 -313
378 -546 508 -32 18 -61 35 -64 38 -3 4 -21 12 -40 19 -19 8 -64 25 -100 39
-132 50 -237 66 -530 78 -232 9 -281 18 -253 46 6 6 50 21 99 33 88 22 134 36
205 62 59 21 269 56 353 59 90 3 286 -25 391 -56 39 -12 134 -42 212 -69 79
-26 143 -44 143 -40 0 28 -178 157 -258 186 -26 10 -52 21 -57 25 -6 5 -69 20
-140 35 -108 22 -157 27 -290 28 -219 1 -505 -12 -563 -25 -91 -21 -318 -46
-377 -42 -138 9 -291 83 -435 212 -64 57 -63 35 6 -101z"/>
<path d="M1852 2091 c85 -126 106 -151 158 -189 88 -66 246 -122 420 -152 89
-15 226 -43 280 -57 30 -8 73 -18 95 -22 129 -26 258 -90 348 -176 28 -27 65
-61 81 -75 l28 -25 -7 25 c-4 14 -29 70 -56 125 -67 137 -152 222 -269 269
-25 10 -58 24 -75 31 -67 31 -242 74 -405 100 -114 19 -276 59 -348 86 -13 5
-30 9 -39 9 -9 0 -65 23 -125 50 -60 28 -111 50 -114 50 -2 0 10 -22 28 -49z"/>
</g>
</svg>
